<svg width="17" height="16" viewBox="0 0 17 16" fill="none" xmlns="http://www.w3.org/2000/svg">
<path fill-rule="evenodd" clip-rule="evenodd" d="M2.06204 6.21673C3.6957 9.77403 6.60274 12.6022 10.2166 14.1346L10.228 14.1395L10.9261 14.4506C11.8152 14.8467 12.8601 14.5654 13.4301 13.7765L14.5949 12.1644C14.666 12.066 14.6477 11.929 14.5532 11.8528L12.5197 10.2123C12.4186 10.1307 12.2699 10.1497 12.1926 10.2541L11.4012 11.322C11.209 11.5814 10.8619 11.6715 10.5678 11.5384C7.86556 10.3155 5.69409 8.14401 4.47119 5.44178C4.3381 5.14768 4.42822 4.80058 4.68757 4.60838L5.7555 3.81696C5.85985 3.73962 5.87884 3.59098 5.79729 3.48989L4.15658 1.45614C4.08032 1.36162 3.94345 1.34326 3.84498 1.41435L2.22414 2.58444C1.43005 3.15771 1.15039 4.21144 1.55573 5.10303L2.0615 6.21555C2.06168 6.21594 2.06186 6.21634 2.06204 6.21673ZM9.67557 15.3944C5.74889 13.7276 2.5906 10.6537 0.815516 6.78763L0.814447 6.7853L0.307617 5.67045C-0.36794 4.18447 0.0981477 2.42825 1.42164 1.47281L3.04248 0.302707C3.73176 -0.194895 4.68987 -0.0663785 5.22366 0.595279L6.86438 2.62903C7.43524 3.33664 7.30227 4.37716 6.57182 4.91849L5.95988 5.37198C6.99356 7.37772 8.63185 9.016 10.6376 10.0497L11.0911 9.43774C11.6324 8.70728 12.6729 8.57432 13.3805 9.14518L15.414 10.7857C16.0759 11.3196 16.2042 12.2781 15.7062 12.9674L14.5414 14.5795C13.5914 15.8943 11.8498 16.3632 10.3682 15.703L9.67557 15.3944Z" fill="#00284F"/>
</svg>
