<svg width="15" height="15" viewBox="0 0 15 15" fill="none" xmlns="http://www.w3.org/2000/svg">
<path d="M4.88284 5.11961C6.209 3.82957 8.69451 4.09731 10.8214 5.62264M4.88284 5.11961C3.54 6.42587 3.83192 8.89235 5.45001 10.9775C4.04044 11.3588 2.6976 11.1722 1.84685 10.3447C0.312179 8.85178 0.921045 5.83359 3.20638 3.61051C5.49171 1.38743 8.59442 0.795149 10.1291 2.28802C10.9465 3.08314 11.1467 4.31638 10.8214 5.62264M4.88284 5.11961C3.54 6.42587 3.83208 8.8922 5.4585 10.9773C5.69204 11.2775 5.95894 11.5696 6.24252 11.8536C8.52785 14.0767 11.6306 14.669 13.1652 13.1761C14.6999 11.6832 14.0911 8.66502 11.8057 6.44194C11.4888 6.13363 11.1633 5.86604 10.8214 5.62264" stroke="white" stroke-width="0.65942" stroke-miterlimit="10" stroke-linejoin="round"/>
<path d="M13.4654 2.29617L13.4821 2.35297C13.7239 3.17242 14.2661 3.81338 14.9584 4.10547L15.0001 4.12169C14.2744 4.40566 13.6989 5.07908 13.457 5.94722L13.4404 5.89042C13.1985 5.07097 12.6563 4.43 11.9641 4.13792L11.9224 4.12169C12.648 3.82961 13.2235 3.1562 13.4654 2.29617Z" fill="#F4FF72"/>
<path d="M11.8807 0L11.889 0.0324537C12.0224 0.470579 12.3144 0.819456 12.6814 0.973611L12.7064 0.981725C12.3144 1.13588 12.0141 1.50098 11.8807 1.95534L11.8723 1.92288C11.7389 1.49287 11.4469 1.14399 11.08 0.989838L11.0549 0.981725C11.4469 0.82757 11.7472 0.462465 11.8807 0Z" fill="#F4FF72"/>
</svg>
